<svg display="none" xmlns="http://www.w3.org/2000/svg">
    <symbol id="icon-phone" viewBox="0 0 30 30">
        <g>
            <circle cx="15" cy="15" r="15" fill="#3875C9"/>
            <path d="M20.3888 18.5518L20.7194 18.8844L20.3881 18.5518H20.3888ZM12.51 17.2044L12.84 16.8719L12.5094 17.2044H12.51ZM9.93125 10.5844L9.60125 10.2525L9.93188 10.585L9.93125 10.5844ZM17.3925 16.6818L17.6781 16.3987L17.0163 15.7337L16.7325 16.0168L17.3925 16.6818ZM18.6338 16.28L19.8281 16.9293L20.275 16.1056L19.0813 15.4569L18.6338 16.28ZM20.0575 18.2193L19.17 19.1025L19.8306 19.7668L20.7181 18.8844L20.0575 18.2193ZM18.6288 19.3862C17.7225 19.4712 15.3788 19.3956 12.84 16.8719L12.1788 17.5362C14.9488 20.2906 17.5856 20.4256 18.7163 20.32L18.6281 19.3862H18.6288ZM12.84 16.8719C10.4206 14.4656 10.0194 12.4425 9.96938 11.5644L9.03313 11.6175C9.09563 12.7225 9.5925 14.965 12.1788 17.5362L12.84 16.8719ZM13.6994 13.0094L13.8788 12.8306L13.2188 12.1662L13.0394 12.3444L13.7 13.0087L13.6994 13.0094ZM14.0213 10.5587L13.2338 9.50622L12.4831 10.0687L13.2706 11.1206L14.0213 10.5587ZM10.5831 9.27685L9.60188 10.2518L10.2631 10.9168L11.2438 9.94185L10.5831 9.27685ZM13.3694 12.6768C13.0381 12.3443 13.0381 12.3444 13.0381 12.3456H13.0369L13.035 12.3481C13.0055 12.3782 12.9789 12.4111 12.9556 12.4462C12.9219 12.4962 12.885 12.5619 12.8538 12.645C12.7776 12.8595 12.7587 13.0902 12.7988 13.3144C12.8825 13.855 13.255 14.5694 14.2088 15.5181L14.87 14.8531C13.9769 13.9656 13.7644 13.4256 13.725 13.1706C13.7063 13.0493 13.7256 12.9893 13.7313 12.9756C13.7344 12.9668 13.7356 12.9662 13.7313 12.9718C13.7257 12.9805 13.7195 12.9887 13.7125 12.9962L13.7063 13.0025C13.7042 13.0044 13.7021 13.0063 13.7 13.0081L13.3688 12.6768H13.3694ZM14.2088 15.5181C15.1631 16.4669 15.8813 16.8369 16.4225 16.9193C16.6994 16.9619 16.9225 16.9281 17.0919 16.865C17.1866 16.8299 17.2752 16.7801 17.3544 16.7175C17.3651 16.7085 17.3756 16.6991 17.3856 16.6894L17.39 16.6856L17.3919 16.6837L17.3925 16.6825C17.3925 16.6825 17.3931 16.6818 17.0625 16.3493C16.7313 16.0168 16.7331 16.0162 16.7331 16.0162L16.7344 16.015L16.7356 16.0137L16.7394 16.0106L16.7456 16.0044C16.7531 15.9976 16.7611 15.9913 16.7694 15.9856C16.7756 15.9812 16.7738 15.9831 16.765 15.9869C16.7494 15.9925 16.6881 16.0118 16.565 15.9931C16.3063 15.9531 15.7625 15.7406 14.87 14.8531L14.2088 15.5181ZM13.2338 9.5056C12.5963 8.6556 11.3438 8.5206 10.5831 9.27685L11.2438 9.94185C11.5763 9.61123 12.1663 9.6456 12.4831 10.0687L13.2331 9.5056H13.2338ZM9.97 11.565C9.9575 11.3487 10.0569 11.1225 10.2631 10.9175L9.60125 10.2525C9.26563 10.5862 9.00125 11.0587 9.03313 11.6175L9.97 11.565ZM19.17 19.1025C18.9988 19.2737 18.8138 19.37 18.6294 19.3869L18.7163 20.32C19.1756 20.2768 19.5513 20.0456 19.8313 19.7675L19.17 19.1025ZM13.8788 12.8306C14.4944 12.2187 14.54 11.2518 14.0219 10.5593L13.2713 11.1212C13.5231 11.4581 13.4856 11.9 13.2181 12.1668L13.8788 12.8306ZM19.8288 16.93C20.3394 17.2075 20.4188 17.8612 20.0581 18.22L20.7194 18.8844C21.5569 18.0512 21.2988 16.6618 20.2756 16.1062L19.8288 16.93ZM17.6781 16.3994C17.9181 16.1606 18.3044 16.1018 18.6344 16.2806L19.0819 15.4575C18.4044 15.0887 17.5644 15.1906 17.0169 15.7344L17.6781 16.3994Z" fill="white"/>
        </g>
    </symbol>
    <symbol id="icon-play" viewBox="0 0 68 68">
        <g filter="url(#filter0_f_16_115)">
            <circle cx="34" cy="34" r="30" fill="#64BBF8" />
        </g>
        <circle cx="34" cy="34" r="20" fill="#3875C9" />
        <path
            d="M25 34V40.967C25 43.277 27.534 44.736 29.597 43.615L32.8 41.873M25 30V27.033C25 24.723 27.534 23.264 29.597 24.385L42.409 31.353C42.8893 31.6084 43.291 31.9897 43.5712 32.456C43.8514 32.9223 43.9994 33.456 43.9994 34C43.9994 34.544 43.8514 35.0777 43.5712 35.544C43.291 36.0103 42.8893 36.3916 42.409 36.647L36.003 40.131"
            stroke="white"
            fill="#3875C9"
            stroke-width="1.5"
            stroke-linecap="round"
        />
        <defs>
            <filter
                id="filter0_f_16_115"
                x="0"
                y="0"
                width="68"
                height="68"
                filterUnits="userSpaceOnUse"
                color-interpolation-filters="sRGB"
            >
                <feFlood
                    flood-opacity="0"
                    result="BackgroundImageFix"
                />
                <feBlend
                    mode="normal"
                    in="SourceGraphic"
                    in2="BackgroundImageFix"
                    result="shape"
                />
                <feGaussianBlur
                    stdDeviation="2"
                    result="effect1_foregroundBlur_16_115"
                />
            </filter>
        </defs>
    </symbol>
    <symbol id="icon-whatsapp" viewBox="0 0 35 37">
        <path d="M34.8491 17.1983C34.8491 21.875 33.1897 25.8729 29.8707 29.1918C26.5517 32.5108 22.5287 34.1703 17.8017 34.1703C14.9856 34.1703 12.245 33.4663 9.57974 32.0582L0.150862 35L3.1681 25.9483C1.55891 23.2328 0.75431 20.3161 0.75431 17.1983C0.75431 12.5216 2.41379 8.53631 5.73276 5.24249C9.05172 1.94867 13.0747 0.301758 17.8017 0.301758C22.5287 0.301758 26.5517 1.94867 29.8707 5.24249C33.1897 8.53631 34.8491 12.5216 34.8491 17.1983ZM17.8017 2.94184C13.829 2.94184 10.4472 4.33732 7.65625 7.12827C4.8653 9.91921 3.46983 13.2759 3.46983 17.1983C3.46983 20.3161 4.375 23.1071 6.18534 25.5712L4.375 30.8513L9.9569 29.1164C12.421 30.6753 15.0359 31.4548 17.8017 31.4548C21.7744 31.4548 25.1562 30.0593 27.9472 27.2684C30.7381 24.4774 32.1336 21.1207 32.1336 17.1983C32.1336 13.2759 30.7381 9.91921 27.9472 7.12827C25.1562 4.33732 21.7744 2.94184 17.8017 2.94184ZM26.4009 21.1207C26.3506 21.0704 26.0991 20.8944 25.6466 20.5927C25.4957 20.5424 25.018 20.3287 24.2134 19.9515C23.4088 19.5744 22.931 19.3607 22.7802 19.3104C22.3276 19.1595 22.0007 19.2098 21.7996 19.4612C21.7493 19.6121 21.6361 19.8007 21.4601 20.027C21.2841 20.2533 21.0955 20.4796 20.8944 20.7059C20.6932 20.9321 20.5675 21.0704 20.5172 21.1207C20.3161 21.4224 20.0144 21.4476 19.6121 21.1962C17.9023 20.3413 16.7708 19.6624 16.2177 19.1595C15.8657 18.8075 15.5262 18.4303 15.1994 18.0281C14.8725 17.6258 14.5708 17.2486 14.2942 16.8966C14.0176 16.5446 13.8793 16.3434 13.8793 16.2931C13.7284 15.9411 13.8039 15.6645 14.1056 15.4634C14.3068 15.1617 14.5079 14.9102 14.7091 14.7091L15.1616 14.0302C15.2622 13.7788 15.2371 13.5273 15.0862 13.2759C14.8851 12.6222 14.4576 11.5913 13.8039 10.1832C13.653 9.73064 13.3513 9.50434 12.8987 9.50434H12.069C11.6164 9.50434 11.2392 9.68035 10.9375 10.0324C9.98204 10.9878 9.50431 12.1193 9.50431 13.4268C9.50431 14.6337 10.0575 16.0668 11.1638 17.7263L11.3147 17.9526C11.4152 18.1035 11.5284 18.2669 11.6541 18.4429C11.7798 18.6189 11.9558 18.8452 12.1821 19.1218C12.4084 19.3984 12.6347 19.6624 12.861 19.9138C13.0873 20.1653 13.3513 20.4544 13.653 20.7813C13.9547 21.1082 14.2816 21.4224 14.6336 21.7242C14.9856 22.0259 15.3502 22.315 15.7274 22.5916C16.1045 22.8682 16.5194 23.1196 16.972 23.3459C17.4246 23.5722 17.8772 23.786 18.3297 23.9871C19.1343 24.2888 19.8258 24.5403 20.4041 24.7414C20.9824 24.9426 21.435 25.0683 21.7619 25.1186C22.0887 25.1689 22.3276 25.194 22.4784 25.194C22.6293 25.194 22.8053 25.1689 23.0065 25.1186C23.2076 25.0683 23.3333 25.0431 23.3836 25.0431C23.8362 24.9928 24.3768 24.7666 25.0054 24.3643C25.634 23.962 26.0237 23.5345 26.1746 23.0819C26.5769 22.0259 26.6523 21.3722 26.4009 21.1207Z" fill="white"/>
    </symbol>
    <symbol id="icon-courier" viewBox="0 0 25 26">
        <path fill-rule="evenodd" clip-rule="evenodd" d="M20.6125 1.18646C19.9225 0.798957 19.1875 0.761457 18.4113 0.857707C17.6738 0.950207 16.775 1.18271 15.6963 1.46396L13.1725 2.11896C12.0938 2.40021 11.1963 2.63271 10.51 2.91146C9.78628 3.20396 9.16128 3.59646 8.75628 4.27771C8.34878 4.96271 8.30878 5.69521 8.41003 6.46021C8.50628 7.18146 8.74753 8.05646 9.03503 9.09896L9.71378 11.554C10.0013 12.5977 10.2438 13.4715 10.5325 14.1415C10.8388 14.854 11.2475 15.4602 11.9425 15.8502C12.6325 16.2365 13.3675 16.2752 14.145 16.1777C14.8825 16.0865 15.7813 15.8527 16.86 15.5715L19.3838 14.9165C20.4625 14.6365 21.36 14.4027 22.0463 14.124C22.77 13.8315 23.395 13.439 23.8 12.7577C24.2075 12.0727 24.2475 11.3402 24.1463 10.5765C24.05 9.85521 23.8088 8.97896 23.5213 7.93646L22.8425 5.48146C22.555 4.43896 22.3125 3.56396 22.0238 2.89396C21.7175 2.18146 21.3063 1.57521 20.6125 1.18646ZM16.1063 3.29396C17.2625 2.99396 18.0413 2.79396 18.6438 2.71896C19.22 2.64646 19.4963 2.71021 19.6975 2.82271C19.8938 2.93271 20.0825 3.12396 20.3013 3.63521C20.5325 4.17271 20.7425 4.92146 21.0525 6.04396L21.695 8.37271C22.0063 9.49521 22.2113 10.2452 22.2875 10.8227C22.36 11.3715 22.295 11.6202 22.1875 11.799C22.0788 11.9827 21.8813 12.169 21.3438 12.3865C20.7838 12.6127 20.0063 12.8177 18.85 13.1177L16.45 13.7415C15.2938 14.0415 14.515 14.2415 13.9125 14.3165C13.335 14.3902 13.06 14.3265 12.8588 14.214C12.6625 14.104 12.4738 13.9115 12.255 13.4015C12.0238 12.864 11.8138 12.114 11.5038 10.9915L10.8613 8.66396C10.55 7.53896 10.345 6.79021 10.2688 6.21396C10.1963 5.66396 10.2613 5.41646 10.3688 5.23646C10.4775 5.05271 10.675 4.86646 11.2125 4.64896C11.7725 4.42271 12.55 4.21896 13.7063 3.91771L16.1063 3.29396Z" fill="#3875C9"/>
        <path fill-rule="evenodd" clip-rule="evenodd" d="M2.00003 3.90636C1.76321 3.8483 1.51309 3.88479 1.30273 4.00809C1.09237 4.13139 0.938325 4.33179 0.873275 4.56679C0.808224 4.80178 0.837288 5.05287 0.9543 5.26679C1.07131 5.48071 1.26706 5.64063 1.50003 5.71261L3.62878 6.30386C4.16128 6.45136 4.55753 6.85386 4.69253 7.34261L7.13253 16.1714C7.03812 16.1901 6.94432 16.2117 6.85128 16.2364C4.38003 16.8776 2.87003 19.3639 3.54753 21.8201C4.22253 24.2639 6.79003 25.6726 9.25128 25.0326C11.4063 24.4739 12.83 22.5126 12.71 20.3926L23.235 17.6576C23.3542 17.6267 23.4661 17.5726 23.5644 17.4984C23.6626 17.4242 23.7453 17.3313 23.8077 17.2252C23.8701 17.1191 23.911 17.0017 23.928 16.8797C23.945 16.7578 23.9378 16.6337 23.9069 16.5145C23.876 16.3953 23.8218 16.2834 23.7477 16.1851C23.6735 16.0869 23.5806 16.0042 23.4745 15.9418C23.3683 15.8794 23.2509 15.8385 23.129 15.8215C23.0071 15.8045 22.883 15.8117 22.7638 15.8426L12.2163 18.5839C11.9007 17.9809 11.4566 17.4545 10.9154 17.042C10.3741 16.6294 9.74884 16.3408 9.08378 16.1964L6.50003 6.84261C6.34143 6.27992 6.03976 5.76793 5.62441 5.35652C5.20906 4.94511 4.6942 4.64833 4.13003 4.49511L2.00128 3.90511L2.00003 3.90636ZM7.32378 18.0501C8.83878 17.6576 10.3588 18.5364 10.7488 19.9489C11.1363 21.3489 10.2863 22.8276 8.78128 23.2189C7.26628 23.6126 5.74628 22.7326 5.35628 21.3201C4.96878 19.9201 5.81878 18.4414 7.32378 18.0501Z" fill="#3875C9"/>
    </symbol>
    <symbol id="icon-transport" viewBox="0 0 32 32">
        <path d="M12 6H8V2H6V6H2V8H6V12H8V8H12V6Z" fill="#3875C9"/>
        <path d="M29.919 16.606L26.919 9.606C26.842 9.42608 26.7139 9.27273 26.5505 9.165C26.3871 9.05727 26.1957 8.99989 26 9H23V7C23 6.73478 22.8946 6.48043 22.7071 6.29289C22.5196 6.10536 22.2652 6 22 6H15V8H21V20.556C20.5443 20.8206 20.1456 21.1728 19.8267 21.5922C19.5078 22.0117 19.2751 22.4902 19.142 23H12.858C12.6405 22.1418 12.143 21.3806 11.4442 20.8368C10.7455 20.2931 9.88538 19.9979 9 19.9979C8.11462 19.9979 7.25452 20.2931 6.55578 20.8368C5.85703 21.3806 5.35953 22.1418 5.142 23H4V14H2V24C2 24.2652 2.10536 24.5196 2.29289 24.7071C2.48043 24.8946 2.73478 25 3 25H5.142C5.35953 25.8582 5.85703 26.6194 6.55578 27.1632C7.25452 27.7069 8.11462 28.0021 9 28.0021C9.88538 28.0021 10.7455 27.7069 11.4442 27.1632C12.143 26.6194 12.6405 25.8582 12.858 25H19.142C19.3595 25.8582 19.857 26.6194 20.5558 27.1632C21.2545 27.7069 22.1146 28.0021 23 28.0021C23.8854 28.0021 24.7455 27.7069 25.4442 27.1632C26.143 26.6194 26.6405 25.8582 26.858 25H29C29.2652 25 29.5196 24.8946 29.7071 24.7071C29.8946 24.5196 30 24.2652 30 24V17C30 16.8645 29.9725 16.7305 29.919 16.606ZM9 26C8.60444 26 8.21776 25.8827 7.88886 25.6629C7.55996 25.4432 7.30362 25.1308 7.15224 24.7654C7.00087 24.3999 6.96126 23.9978 7.03843 23.6098C7.1156 23.2219 7.30608 22.8655 7.58579 22.5858C7.86549 22.3061 8.22186 22.1156 8.60982 22.0384C8.99778 21.9613 9.39991 22.0009 9.76537 22.1522C10.1308 22.3036 10.4432 22.56 10.6629 22.8889C10.8827 23.2178 11 23.6044 11 24C10.9992 24.5302 10.7882 25.0384 10.4133 25.4133C10.0384 25.7882 9.53019 25.9992 9 26ZM23 11H25.34L27.484 16H23V11ZM23 26C22.6044 26 22.2178 25.8827 21.8889 25.6629C21.56 25.4432 21.3036 25.1308 21.1522 24.7654C21.0009 24.3999 20.9613 23.9978 21.0384 23.6098C21.1156 23.2219 21.3061 22.8655 21.5858 22.5858C21.8655 22.3061 22.2219 22.1156 22.6098 22.0384C22.9978 21.9613 23.3999 22.0009 23.7654 22.1522C24.1308 22.3036 24.4432 22.56 24.6629 22.8889C24.8827 23.2178 25 23.6044 25 24C24.9995 24.5303 24.7886 25.0387 24.4136 25.4136C24.0387 25.7886 23.5303 25.9995 23 26ZM28 23H26.858C26.6377 22.1434 26.1394 21.3842 25.4412 20.8413C24.743 20.2983 23.8844 20.0025 23 20V18H28V23Z" fill="#3875C9"/>
    </symbol>
    <symbol id="icon-pickup" viewBox="0 0 30 30">
        <path d="M27.6394 8.08484L18.2644 2.92859C18.126 2.85243 17.9705 2.8125 17.8125 2.8125C17.6545 2.8125 17.4991 2.85243 17.3606 2.92859L7.98564 8.08484C7.83865 8.16577 7.71608 8.28467 7.63071 8.42912C7.54534 8.57358 7.50031 8.73829 7.50031 8.90609C7.50031 9.07388 7.54534 9.2386 7.63071 9.38306C7.71608 9.52751 7.83865 9.64641 7.98564 9.72734L16.875 14.6164V24.6655L14.0288 23.0998L13.125 24.7414L17.3606 27.0711C17.499 27.1474 17.6545 27.1874 17.8125 27.1874C17.9705 27.1874 18.126 27.1474 18.2644 27.0711L27.6394 21.9148C27.7864 21.8339 27.9091 21.7151 27.9945 21.5706C28.0799 21.4262 28.125 21.2614 28.125 21.0936V8.90609C28.125 8.73827 28.0799 8.57353 27.9945 8.42907C27.9091 8.28461 27.7864 8.16573 27.6394 8.08484ZM17.8125 4.82046L25.2422 8.90609L17.8125 12.9917L10.3828 8.90609L17.8125 4.82046ZM26.25 20.5395L18.75 24.6645V14.6155L26.25 10.4905V20.5395Z" fill="#3875C9"/>
        <path d="M9.375 15H1.875V13.125H9.375V15ZM11.25 22.5H3.75V20.625H11.25V22.5ZM13.125 18.75H5.625V16.875H13.125V18.75Z" fill="#3875C9"/>
    </symbol>
    <symbol id="icon-percent" viewBox="0 0 30 30">
        <path d="M9.375 5C6.9625 5 5 6.9625 5 9.375C5 11.7875 6.9625 13.75 9.375 13.75C11.7875 13.75 13.75 11.7875 13.75 9.375C13.75 6.9625 11.7875 5 9.375 5ZM9.375 11.25C8.3375 11.25 7.5 10.4125 7.5 9.375C7.5 8.3375 8.3375 7.5 9.375 7.5C10.4125 7.5 11.25 8.3375 11.25 9.375C11.25 10.4125 10.4125 11.25 9.375 11.25ZM20.625 16.25C18.2125 16.25 16.25 18.2125 16.25 20.625C16.25 23.0375 18.2125 25 20.625 25C23.0375 25 25 23.0375 25 20.625C25 18.2125 23.0375 16.25 20.625 16.25ZM20.625 22.5C19.5875 22.5 18.75 21.6625 18.75 20.625C18.75 19.5875 19.5875 18.75 20.625 18.75C21.6625 18.75 22.5 19.5875 22.5 20.625C22.5 21.6625 21.6625 22.5 20.625 22.5ZM24.1125 5.8875C24.6 6.375 24.6 7.1625 24.1125 7.65L7.65 24.1125C7.53427 24.2282 7.39688 24.32 7.24568 24.3827C7.09447 24.4453 6.93241 24.4775 6.76875 24.4775C6.60509 24.4775 6.44303 24.4453 6.29182 24.3827C6.14062 24.32 6.00323 24.2282 5.8875 24.1125C5.77177 23.9968 5.67997 23.8594 5.61734 23.7082C5.55471 23.557 5.52247 23.3949 5.52247 23.2312C5.52247 23.0676 5.55471 22.9055 5.61734 22.7543C5.67997 22.6031 5.77177 22.4657 5.8875 22.35L22.35 5.8875C22.4656 5.77162 22.603 5.67969 22.7542 5.61696C22.9054 5.55423 23.0675 5.52194 23.2312 5.52194C23.395 5.52194 23.5571 5.55423 23.7083 5.61696C23.8595 5.67969 23.9969 5.77162 24.1125 5.8875Z" fill="#3875C9"/>
    </symbol>
    <symbol id="icon-card" viewBox="0 0 30 30">
        <path d="M19.6875 18.75C19.4389 18.75 19.2004 18.8488 19.0246 19.0246C18.8488 19.2004 18.75 19.4389 18.75 19.6875C18.75 19.9361 18.8488 20.1746 19.0246 20.3504C19.2004 20.5262 19.4389 20.625 19.6875 20.625H23.4375C23.6861 20.625 23.9246 20.5262 24.1004 20.3504C24.2762 20.1746 24.375 19.9361 24.375 19.6875C24.375 19.4389 24.2762 19.2004 24.1004 19.0246C23.9246 18.8488 23.6861 18.75 23.4375 18.75H19.6875ZM1.875 10.3125C1.875 9.0693 2.36886 7.87701 3.24794 6.99794C4.12701 6.11886 5.3193 5.625 6.5625 5.625H23.4375C24.6807 5.625 25.873 6.11886 26.7521 6.99794C27.6311 7.87701 28.125 9.0693 28.125 10.3125V19.6875C28.125 20.9307 27.6311 22.123 26.7521 23.0021C25.873 23.8811 24.6807 24.375 23.4375 24.375H6.5625C5.3193 24.375 4.12701 23.8811 3.24794 23.0021C2.36886 22.123 1.875 20.9307 1.875 19.6875V10.3125ZM26.25 11.25V10.3125C26.25 9.56658 25.9537 8.85121 25.4262 8.32376C24.8988 7.79632 24.1834 7.5 23.4375 7.5H6.5625C5.81658 7.5 5.10121 7.79632 4.57376 8.32376C4.04632 8.85121 3.75 9.56658 3.75 10.3125V11.25H26.25ZM3.75 13.125V19.6875C3.75 20.4334 4.04632 21.1488 4.57376 21.6762C5.10121 22.2037 5.81658 22.5 6.5625 22.5H23.4375C24.1834 22.5 24.8988 22.2037 25.4262 21.6762C25.9537 21.1488 26.25 20.4334 26.25 19.6875V13.125H3.75Z" fill="#3875C9"/>
    </symbol>
</svg>