<svg display="none" xmlns="http://www.w3.org/2000/svg">
    <symbol id="icon-phone" viewBox="0 0 30 30">
        <g>
            <circle cx="15" cy="15" r="15" fill="#3875C9"/>
            <path d="M20.3888 18.5518L20.7194 18.8844L20.3881 18.5518H20.3888ZM12.51 17.2044L12.84 16.8719L12.5094 17.2044H12.51ZM9.93125 10.5844L9.60125 10.2525L9.93188 10.585L9.93125 10.5844ZM17.3925 16.6818L17.6781 16.3987L17.0163 15.7337L16.7325 16.0168L17.3925 16.6818ZM18.6338 16.28L19.8281 16.9293L20.275 16.1056L19.0813 15.4569L18.6338 16.28ZM20.0575 18.2193L19.17 19.1025L19.8306 19.7668L20.7181 18.8844L20.0575 18.2193ZM18.6288 19.3862C17.7225 19.4712 15.3788 19.3956 12.84 16.8719L12.1788 17.5362C14.9488 20.2906 17.5856 20.4256 18.7163 20.32L18.6281 19.3862H18.6288ZM12.84 16.8719C10.4206 14.4656 10.0194 12.4425 9.96938 11.5644L9.03313 11.6175C9.09563 12.7225 9.5925 14.965 12.1788 17.5362L12.84 16.8719ZM13.6994 13.0094L13.8788 12.8306L13.2188 12.1662L13.0394 12.3444L13.7 13.0087L13.6994 13.0094ZM14.0213 10.5587L13.2338 9.50622L12.4831 10.0687L13.2706 11.1206L14.0213 10.5587ZM10.5831 9.27685L9.60188 10.2518L10.2631 10.9168L11.2438 9.94185L10.5831 9.27685ZM13.3694 12.6768C13.0381 12.3443 13.0381 12.3444 13.0381 12.3456H13.0369L13.035 12.3481C13.0055 12.3782 12.9789 12.4111 12.9556 12.4462C12.9219 12.4962 12.885 12.5619 12.8538 12.645C12.7776 12.8595 12.7587 13.0902 12.7988 13.3144C12.8825 13.855 13.255 14.5694 14.2088 15.5181L14.87 14.8531C13.9769 13.9656 13.7644 13.4256 13.725 13.1706C13.7063 13.0493 13.7256 12.9893 13.7313 12.9756C13.7344 12.9668 13.7356 12.9662 13.7313 12.9718C13.7257 12.9805 13.7195 12.9887 13.7125 12.9962L13.7063 13.0025C13.7042 13.0044 13.7021 13.0063 13.7 13.0081L13.3688 12.6768H13.3694ZM14.2088 15.5181C15.1631 16.4669 15.8813 16.8369 16.4225 16.9193C16.6994 16.9619 16.9225 16.9281 17.0919 16.865C17.1866 16.8299 17.2752 16.7801 17.3544 16.7175C17.3651 16.7085 17.3756 16.6991 17.3856 16.6894L17.39 16.6856L17.3919 16.6837L17.3925 16.6825C17.3925 16.6825 17.3931 16.6818 17.0625 16.3493C16.7313 16.0168 16.7331 16.0162 16.7331 16.0162L16.7344 16.015L16.7356 16.0137L16.7394 16.0106L16.7456 16.0044C16.7531 15.9976 16.7611 15.9913 16.7694 15.9856C16.7756 15.9812 16.7738 15.9831 16.765 15.9869C16.7494 15.9925 16.6881 16.0118 16.565 15.9931C16.3063 15.9531 15.7625 15.7406 14.87 14.8531L14.2088 15.5181ZM13.2338 9.5056C12.5963 8.6556 11.3438 8.5206 10.5831 9.27685L11.2438 9.94185C11.5763 9.61123 12.1663 9.6456 12.4831 10.0687L13.2331 9.5056H13.2338ZM9.97 11.565C9.9575 11.3487 10.0569 11.1225 10.2631 10.9175L9.60125 10.2525C9.26563 10.5862 9.00125 11.0587 9.03313 11.6175L9.97 11.565ZM19.17 19.1025C18.9988 19.2737 18.8138 19.37 18.6294 19.3869L18.7163 20.32C19.1756 20.2768 19.5513 20.0456 19.8313 19.7675L19.17 19.1025ZM13.8788 12.8306C14.4944 12.2187 14.54 11.2518 14.0219 10.5593L13.2713 11.1212C13.5231 11.4581 13.4856 11.9 13.2181 12.1668L13.8788 12.8306ZM19.8288 16.93C20.3394 17.2075 20.4188 17.8612 20.0581 18.22L20.7194 18.8844C21.5569 18.0512 21.2988 16.6618 20.2756 16.1062L19.8288 16.93ZM17.6781 16.3994C17.9181 16.1606 18.3044 16.1018 18.6344 16.2806L19.0819 15.4575C18.4044 15.0887 17.5644 15.1906 17.0169 15.7344L17.6781 16.3994Z" fill="white"/>
        </g>
    </symbol>
    <symbol id="icon-play" viewBox="0 0 68 68">
        <g filter="url(#filter0_f_16_115)">
            <circle cx="34" cy="34" r="30" fill="#64BBF8" />
        </g>
        <circle cx="34" cy="34" r="20" fill="#3875C9" />
        <path
            d="M25 34V40.967C25 43.277 27.534 44.736 29.597 43.615L32.8 41.873M25 30V27.033C25 24.723 27.534 23.264 29.597 24.385L42.409 31.353C42.8893 31.6084 43.291 31.9897 43.5712 32.456C43.8514 32.9223 43.9994 33.456 43.9994 34C43.9994 34.544 43.8514 35.0777 43.5712 35.544C43.291 36.0103 42.8893 36.3916 42.409 36.647L36.003 40.131"
            stroke="white"
            fill="#3875C9"
            stroke-width="1.5"
            stroke-linecap="round"
        />
        <defs>
            <filter
                id="filter0_f_16_115"
                x="0"
                y="0"
                width="68"
                height="68"
                filterUnits="userSpaceOnUse"
                color-interpolation-filters="sRGB"
            >
                <feFlood
                    flood-opacity="0"
                    result="BackgroundImageFix"
                />
                <feBlend
                    mode="normal"
                    in="SourceGraphic"
                    in2="BackgroundImageFix"
                    result="shape"
                />
                <feGaussianBlur
                    stdDeviation="2"
                    result="effect1_foregroundBlur_16_115"
                />
            </filter>
        </defs>
    </symbol>
    <symbol id="icon-whatsapp" viewBox="0 0 35 37">
        <path d="M34.8491 17.1983C34.8491 21.875 33.1897 25.8729 29.8707 29.1918C26.5517 32.5108 22.5287 34.1703 17.8017 34.1703C14.9856 34.1703 12.245 33.4663 9.57974 32.0582L0.150862 35L3.1681 25.9483C1.55891 23.2328 0.75431 20.3161 0.75431 17.1983C0.75431 12.5216 2.41379 8.53631 5.73276 5.24249C9.05172 1.94867 13.0747 0.301758 17.8017 0.301758C22.5287 0.301758 26.5517 1.94867 29.8707 5.24249C33.1897 8.53631 34.8491 12.5216 34.8491 17.1983ZM17.8017 2.94184C13.829 2.94184 10.4472 4.33732 7.65625 7.12827C4.8653 9.91921 3.46983 13.2759 3.46983 17.1983C3.46983 20.3161 4.375 23.1071 6.18534 25.5712L4.375 30.8513L9.9569 29.1164C12.421 30.6753 15.0359 31.4548 17.8017 31.4548C21.7744 31.4548 25.1562 30.0593 27.9472 27.2684C30.7381 24.4774 32.1336 21.1207 32.1336 17.1983C32.1336 13.2759 30.7381 9.91921 27.9472 7.12827C25.1562 4.33732 21.7744 2.94184 17.8017 2.94184ZM26.4009 21.1207C26.3506 21.0704 26.0991 20.8944 25.6466 20.5927C25.4957 20.5424 25.018 20.3287 24.2134 19.9515C23.4088 19.5744 22.931 19.3607 22.7802 19.3104C22.3276 19.1595 22.0007 19.2098 21.7996 19.4612C21.7493 19.6121 21.6361 19.8007 21.4601 20.027C21.2841 20.2533 21.0955 20.4796 20.8944 20.7059C20.6932 20.9321 20.5675 21.0704 20.5172 21.1207C20.3161 21.4224 20.0144 21.4476 19.6121 21.1962C17.9023 20.3413 16.7708 19.6624 16.2177 19.1595C15.8657 18.8075 15.5262 18.4303 15.1994 18.0281C14.8725 17.6258 14.5708 17.2486 14.2942 16.8966C14.0176 16.5446 13.8793 16.3434 13.8793 16.2931C13.7284 15.9411 13.8039 15.6645 14.1056 15.4634C14.3068 15.1617 14.5079 14.9102 14.7091 14.7091L15.1616 14.0302C15.2622 13.7788 15.2371 13.5273 15.0862 13.2759C14.8851 12.6222 14.4576 11.5913 13.8039 10.1832C13.653 9.73064 13.3513 9.50434 12.8987 9.50434H12.069C11.6164 9.50434 11.2392 9.68035 10.9375 10.0324C9.98204 10.9878 9.50431 12.1193 9.50431 13.4268C9.50431 14.6337 10.0575 16.0668 11.1638 17.7263L11.3147 17.9526C11.4152 18.1035 11.5284 18.2669 11.6541 18.4429C11.7798 18.6189 11.9558 18.8452 12.1821 19.1218C12.4084 19.3984 12.6347 19.6624 12.861 19.9138C13.0873 20.1653 13.3513 20.4544 13.653 20.7813C13.9547 21.1082 14.2816 21.4224 14.6336 21.7242C14.9856 22.0259 15.3502 22.315 15.7274 22.5916C16.1045 22.8682 16.5194 23.1196 16.972 23.3459C17.4246 23.5722 17.8772 23.786 18.3297 23.9871C19.1343 24.2888 19.8258 24.5403 20.4041 24.7414C20.9824 24.9426 21.435 25.0683 21.7619 25.1186C22.0887 25.1689 22.3276 25.194 22.4784 25.194C22.6293 25.194 22.8053 25.1689 23.0065 25.1186C23.2076 25.0683 23.3333 25.0431 23.3836 25.0431C23.8362 24.9928 24.3768 24.7666 25.0054 24.3643C25.634 23.962 26.0237 23.5345 26.1746 23.0819C26.5769 22.0259 26.6523 21.3722 26.4009 21.1207Z" fill="white"/>
    </symbol>
</svg>