<svg width="30" height="57" viewBox="0 0 30 57" fill="none" xmlns="http://www.w3.org/2000/svg">
<g filter="url(#filter0_i_20_508)">
<path d="M29.28 57H1.6V53.56C2.93333 52.9733 4.26667 52.4667 5.6 52.04C6.98667 51.56 8.37333 51.16 9.76 50.84V14.12L10.08 9.4C8.58667 9.88 7.04 10.2 5.44 10.36C3.84 10.52 2.18667 10.5733 0.48 10.52L0.0800003 7.56C2.90667 6.81333 5.97333 5.8 9.28 4.52C12.64 3.24 15.7333 1.74667 18.56 0.039999H21.28V50.84C22.6133 51.16 23.9467 51.56 25.28 52.04C26.6133 52.4667 27.9467 52.9733 29.28 53.56V57Z" fill="#64BBF8"/>
</g>
<defs>
<filter id="filter0_i_20_508" x="0.0800171" y="0.0400391" width="29.2" height="60.96" filterUnits="userSpaceOnUse" color-interpolation-filters="sRGB">
<feFlood flood-opacity="0" result="BackgroundImageFix"/>
<feBlend mode="normal" in="SourceGraphic" in2="BackgroundImageFix" result="shape"/>
<feColorMatrix in="SourceAlpha" type="matrix" values="0 0 0 0 0 0 0 0 0 0 0 0 0 0 0 0 0 0 127 0" result="hardAlpha"/>
<feOffset dy="4"/>
<feGaussianBlur stdDeviation="2.5"/>
<feComposite in2="hardAlpha" operator="arithmetic" k2="-1" k3="1"/>
<feColorMatrix type="matrix" values="0 0 0 0 0 0 0 0 0 0 0 0 0 0 0 0 0 0 0.25 0"/>
<feBlend mode="normal" in2="shape" result="effect1_innerShadow_20_508"/>
</filter>
</defs>
</svg>
