<svg width="38" height="57" viewBox="0 0 38 57" fill="none" xmlns="http://www.w3.org/2000/svg">
<g filter="url(#filter0_i_20_511)">
<path d="M8.28 18.76H5.56C5.24 17.96 4.86667 17.0267 4.44 15.96C4.06667 14.8933 3.66667 13.7733 3.24 12.6C2.81333 11.4267 2.41333 10.28 2.04 9.16C1.66667 7.98667 1.37333 6.92 1.16 5.96C3.02667 4.36 5.4 2.97333 8.28 1.8C11.2133 0.626664 14.76 0.039999 18.92 0.039999C21.8533 0.039999 24.3867 0.413332 26.52 1.16C28.6533 1.90667 30.4133 2.94666 31.8 4.28C33.24 5.61333 34.28 7.16 34.92 8.92C35.6133 10.68 35.96 12.5733 35.96 14.6C35.96 17.8533 35.2133 20.9467 33.72 23.88C32.2267 26.76 30.3867 29.48 28.2 32.04C26.0133 34.5467 23.6667 36.8933 21.16 39.08C18.6533 41.2133 16.3867 43.16 14.36 44.92L10.2 47.72V48.04L15.08 47.56H28.84L32.76 38.6H35.48C35.64 39.88 35.8 41.3733 35.96 43.08C36.1733 44.7867 36.36 46.52 36.52 48.28C36.68 49.9867 36.8133 51.64 36.92 53.24C37.0267 54.7867 37.08 56.04 37.08 57H0.44V51.88C1.82667 50.6533 3.4 49.24 5.16 47.64C6.92 45.9867 8.70667 44.2 10.52 42.28C12.3333 40.3067 14.12 38.2267 15.88 36.04C17.64 33.8533 19.2133 31.64 20.6 29.4C21.9867 27.1067 23.08 24.7867 23.88 22.44C24.7333 20.0933 25.16 17.8 25.16 15.56C25.16 12.6267 24.36 10.2533 22.76 8.44C21.2133 6.57333 19 5.64 16.12 5.64C15.2133 5.64 14.3867 5.69333 13.64 5.8C12.9467 5.90666 12.1467 6.09333 11.24 6.36L8.28 18.76Z" fill="#64BBF8"/>
</g>
<defs>
<filter id="filter0_i_20_511" x="0.440002" y="0.0400391" width="36.64" height="60.96" filterUnits="userSpaceOnUse" color-interpolation-filters="sRGB">
<feFlood flood-opacity="0" result="BackgroundImageFix"/>
<feBlend mode="normal" in="SourceGraphic" in2="BackgroundImageFix" result="shape"/>
<feColorMatrix in="SourceAlpha" type="matrix" values="0 0 0 0 0 0 0 0 0 0 0 0 0 0 0 0 0 0 127 0" result="hardAlpha"/>
<feOffset dy="4"/>
<feGaussianBlur stdDeviation="2"/>
<feComposite in2="hardAlpha" operator="arithmetic" k2="-1" k3="1"/>
<feColorMatrix type="matrix" values="0 0 0 0 0 0 0 0 0 0 0 0 0 0 0 0 0 0 0.25 0"/>
<feBlend mode="normal" in2="shape" result="effect1_innerShadow_20_511"/>
</filter>
</defs>
</svg>
