<svg width="38" height="57" viewBox="0 0 38 57" fill="none" xmlns="http://www.w3.org/2000/svg">
<g filter="url(#filter0_i_20_517)">
<path d="M16.56 51.76C17.7867 51.76 18.9867 51.4933 20.16 50.96C21.3333 50.3733 22.3733 49.5733 23.28 48.56C24.24 47.5467 24.9867 46.3467 25.52 44.96C26.1067 43.5733 26.4 42.08 26.4 40.48C26.4 38.6667 26.08 37.12 25.44 35.84C24.8533 34.5067 24.0533 33.4133 23.04 32.56C22.08 31.7067 20.96 31.0933 19.68 30.72C18.4 30.2933 17.12 30.08 15.84 30.08H11.2V26.88L23.2 11.2L25.92 8.4V8.08L21.6 8.56H9.52L6.4 16.72H3.68C3.41333 15.6 3.12 14.2667 2.8 12.72C2.53333 11.1733 2.26667 9.62666 2 8.08C1.78667 6.53333 1.6 5.04 1.44 3.6C1.33333 2.16 1.28 0.959997 1.28 -3.8147e-06H36.16V3.92L22.32 20.8L18.88 24.32V24.48L21.6 23.92C24.1067 24.0267 26.3467 24.5067 28.32 25.36C30.3467 26.16 32.0267 27.28 33.36 28.72C34.7467 30.1067 35.7867 31.7333 36.48 33.6C37.2267 35.4667 37.6 37.52 37.6 39.76C37.6 42.4267 37.0133 44.8267 35.84 46.96C34.72 49.0933 33.2 50.9067 31.28 52.4C29.36 53.8933 27.12 55.04 24.56 55.84C22 56.5867 19.3067 56.96 16.48 56.96C14.88 56.96 13.28 56.8267 11.68 56.56C10.08 56.3467 8.56 56.0267 7.12 55.6C5.73333 55.1733 4.45333 54.6667 3.28 54.08C2.16 53.4933 1.2 52.8533 0.4 52.16L3.36 43.84H5.68C6 44.2133 6.42667 44.72 6.96 45.36C7.54667 45.9467 8.13333 46.5867 8.72 47.28C9.36 47.9733 9.97333 48.6667 10.56 49.36C11.1467 50.0533 11.6533 50.64 12.08 51.12C12.6133 51.2267 13.2 51.36 13.84 51.52C14.5333 51.68 15.44 51.76 16.56 51.76Z" fill="#64BBF8"/>
</g>
<defs>
<filter id="filter0_i_20_517" x="0.400002" y="0" width="37.2" height="60.96" filterUnits="userSpaceOnUse" color-interpolation-filters="sRGB">
<feFlood flood-opacity="0" result="BackgroundImageFix"/>
<feBlend mode="normal" in="SourceGraphic" in2="BackgroundImageFix" result="shape"/>
<feColorMatrix in="SourceAlpha" type="matrix" values="0 0 0 0 0 0 0 0 0 0 0 0 0 0 0 0 0 0 127 0" result="hardAlpha"/>
<feOffset dy="4"/>
<feGaussianBlur stdDeviation="2"/>
<feComposite in2="hardAlpha" operator="arithmetic" k2="-1" k3="1"/>
<feColorMatrix type="matrix" values="0 0 0 0 0 0 0 0 0 0 0 0 0 0 0 0 0 0 0.25 0"/>
<feBlend mode="normal" in2="shape" result="effect1_innerShadow_20_517"/>
</filter>
</defs>
</svg>
