<svg width="37" height="62" viewBox="0 0 37 62" fill="none" xmlns="http://www.w3.org/2000/svg">
<g filter="url(#filter0_i_22_536)">
<path d="M33.4 0.599996H36.12C36.12 1.4 36.0933 2.44 36.04 3.72C35.9867 5 35.88 6.30666 35.72 7.64C35.56 8.97333 35.3733 10.2533 35.16 11.48C34.9467 12.6533 34.7333 13.56 34.52 14.2H12.6L11.16 25.64H17.8C20.68 25.64 23.2933 26.04 25.64 26.84C27.9867 27.5867 29.9867 28.7067 31.64 30.2C33.2933 31.64 34.5733 33.4267 35.48 35.56C36.3867 37.64 36.84 40.04 36.84 42.76C36.84 45.8 36.2533 48.52 35.08 50.92C33.96 53.2667 32.4133 55.2667 30.44 56.92C28.4667 58.52 26.1467 59.7733 23.48 60.68C20.8133 61.5333 17.9333 61.96 14.84 61.96C11.7467 61.96 8.92 61.48 6.36 60.52C3.8 59.5067 1.74667 58.3867 0.2 57.16L3.56 49.24H5.88C6.25333 49.6133 6.68 50.0933 7.16 50.68C7.64 51.2667 8.14667 51.88 8.68 52.52C9.21333 53.16 9.72 53.8 10.2 54.44C10.68 55.08 11.1067 55.64 11.48 56.12C12.0133 56.3333 12.4933 56.4933 12.92 56.6C13.4 56.7067 14.0133 56.76 14.76 56.76C16.36 56.76 17.8533 56.4933 19.24 55.96C20.6267 55.3733 21.8 54.5733 22.76 53.56C23.7733 52.5467 24.5733 51.3467 25.16 49.96C25.7467 48.52 26.04 46.9467 26.04 45.24C26.04 43.3733 25.6667 41.7467 24.92 40.36C24.2267 38.92 23.2667 37.7467 22.04 36.84C20.8133 35.9333 19.3733 35.2667 17.72 34.84C16.0667 34.36 14.3333 34.12 12.52 34.12L5.56 34.2L8.76 5H29.64L33.4 0.599996Z" fill="#64BBF8"/>
</g>
<defs>
<filter id="filter0_i_22_536" x="0.200012" y="0.600098" width="36.64" height="65.3599" filterUnits="userSpaceOnUse" color-interpolation-filters="sRGB">
<feFlood flood-opacity="0" result="BackgroundImageFix"/>
<feBlend mode="normal" in="SourceGraphic" in2="BackgroundImageFix" result="shape"/>
<feColorMatrix in="SourceAlpha" type="matrix" values="0 0 0 0 0 0 0 0 0 0 0 0 0 0 0 0 0 0 127 0" result="hardAlpha"/>
<feOffset dy="4"/>
<feGaussianBlur stdDeviation="2"/>
<feComposite in2="hardAlpha" operator="arithmetic" k2="-1" k3="1"/>
<feColorMatrix type="matrix" values="0 0 0 0 0 0 0 0 0 0 0 0 0 0 0 0 0 0 0.25 0"/>
<feBlend mode="normal" in2="shape" result="effect1_innerShadow_22_536"/>
</filter>
</defs>
</svg>
