<svg width="40" height="59" viewBox="0 0 40 59" fill="none" xmlns="http://www.w3.org/2000/svg">
<g filter="url(#filter0_i_22_542)">
<path d="M39.88 40.8C39.88 43.5733 39.3467 46.08 38.28 48.32C37.2667 50.56 35.88 52.48 34.12 54.08C32.36 55.6267 30.28 56.8267 27.88 57.68C25.5333 58.5333 23.0267 58.96 20.36 58.96C17.0533 58.96 14.12 58.4533 11.56 57.44C9.05333 56.3733 6.94667 54.9067 5.24 53.04C3.53333 51.1733 2.22667 48.96 1.32 46.4C0.466667 43.84 0.0400002 41.04 0.0400002 38C0.0400002 32.9867 0.92 28.4 2.68 24.24C4.44 20.08 6.81333 16.4 9.8 13.2C12.7867 10 16.2533 7.33333 20.2 5.2C24.2 3.06666 28.44 1.52 32.92 0.559996L34.12 4C31.24 4.90666 28.5733 6.13333 26.12 7.68C23.6667 9.22667 21.48 11.12 19.56 13.36C17.6933 15.5467 16.1467 18.0533 14.92 20.88C13.7467 23.6533 13 26.72 12.68 30.08C13.1067 29.3867 13.64 28.72 14.28 28.08C14.9733 27.3867 15.8 26.7733 16.76 26.24C17.72 25.6533 18.8133 25.2 20.04 24.88C21.32 24.5067 22.76 24.32 24.36 24.32C26.5467 24.32 28.5733 24.6667 30.44 25.36C32.36 26.0533 34.0133 27.0933 35.4 28.48C36.7867 29.8667 37.88 31.6 38.68 33.68C39.48 35.7067 39.88 38.08 39.88 40.8ZM27.88 41.76C27.88 33.8667 25.24 29.92 19.96 29.92C18.1467 29.92 16.6 30.4 15.32 31.36C14.04 32.2667 13.1067 33.3333 12.52 34.56C12.36 35.3067 12.2267 36.1867 12.12 37.2C12.0667 38.16 12.04 39.0933 12.04 40C12.04 41.8133 12.2 43.5733 12.52 45.28C12.84 46.9333 13.3467 48.4267 14.04 49.76C14.7333 51.04 15.6133 52.08 16.68 52.88C17.8 53.68 19.1333 54.08 20.68 54.08C22.0133 54.08 23.1333 53.76 24.04 53.12C24.9467 52.4267 25.6667 51.52 26.2 50.4C26.7867 49.28 27.2133 47.9733 27.48 46.48C27.7467 44.9867 27.88 43.4133 27.88 41.76Z" fill="#64BBF8"/>
</g>
<defs>
<filter id="filter0_i_22_542" x="0.0400009" y="0.560059" width="39.84" height="62.3999" filterUnits="userSpaceOnUse" color-interpolation-filters="sRGB">
<feFlood flood-opacity="0" result="BackgroundImageFix"/>
<feBlend mode="normal" in="SourceGraphic" in2="BackgroundImageFix" result="shape"/>
<feColorMatrix in="SourceAlpha" type="matrix" values="0 0 0 0 0 0 0 0 0 0 0 0 0 0 0 0 0 0 127 0" result="hardAlpha"/>
<feOffset dy="4"/>
<feGaussianBlur stdDeviation="2"/>
<feComposite in2="hardAlpha" operator="arithmetic" k2="-1" k3="1"/>
<feColorMatrix type="matrix" values="0 0 0 0 0 0 0 0 0 0 0 0 0 0 0 0 0 0 0.25 0"/>
<feBlend mode="normal" in2="shape" result="effect1_innerShadow_22_542"/>
</filter>
</defs>
</svg>
